<svg xmlns="http://www.w3.org/2000/svg" xmlns:xlink="http://www.w3.org/1999/xlink" width="1280" height="800" viewBox="0 0 1280 800">
  <defs>
    <style>
      .cls-1 {
        clip-path: url(#clip-Web_1280_1);
      }

      .cls-2 {
        fill: none;
      }

      .cls-3, .cls-4, .cls-5, .cls-6, .cls-7 {
        stroke: none;
      }

      .cls-4 {
        fill: #70f;
      }

      .cls-5 {
        fill: #535354;
      }

      .cls-6 {
        fill: #ff00a1;
      }

      .cls-7 {
        fill: #00d3ff;
      }

      .cls-8 {
        filter: url(#Trazado_8);
      }

      .cls-9 {
        filter: url(#Trazado_7);
      }

      .cls-10 {
        filter: url(#Trazado_6);
      }

      .cls-11 {
        filter: url(#Trazado_9);
      }

      .cls-12 {
        filter: url(#Trazado_5);
      }

      .cls-13 {
        filter: url(#Trazado_4);
      }

      .cls-14 {
        filter: url(#Trazado_3);
      }

      .cls-15 {
        filter: url(#Trazado_2);
      }

      .cls-16 {
        filter: url(#Trazado_1);
      }
    </style>
    <filter id="Trazado_1" x="136" y="10.947" width="256" height="226" filterUnits="userSpaceOnUse">
      <feOffset input="SourceAlpha"/>
      <feGaussianBlur stdDeviation="6" result="blur"/>
      <feFlood flood-color="#70f"/>
      <feComposite operator="in" in2="blur"/>
      <feComposite in="SourceGraphic"/>
    </filter>
    <filter id="Trazado_2" x="435.591" y="10.947" width="256" height="226" filterUnits="userSpaceOnUse">
      <feOffset input="SourceAlpha"/>
      <feGaussianBlur stdDeviation="6" result="blur-2"/>
      <feFlood flood-color="#7d7d80"/>
      <feComposite operator="in" in2="blur-2"/>
      <feComposite in="SourceGraphic"/>
    </filter>
    <filter id="Trazado_3" x="584.409" y="219.947" width="256" height="226" filterUnits="userSpaceOnUse">
      <feOffset input="SourceAlpha"/>
      <feGaussianBlur stdDeviation="6" result="blur-3"/>
      <feFlood flood-color="#7d7d80"/>
      <feComposite operator="in" in2="blur-3"/>
      <feComposite in="SourceGraphic"/>
    </filter>
    <filter id="Trazado_4" x="887" y="219.947" width="256" height="226" filterUnits="userSpaceOnUse">
      <feOffset input="SourceAlpha"/>
      <feGaussianBlur stdDeviation="6" result="blur-4"/>
      <feFlood flood-color="#ff00a1"/>
      <feComposite operator="in" in2="blur-4"/>
      <feComposite in="SourceGraphic"/>
    </filter>
    <filter id="Trazado_5" x="286.803" y="10.947" width="256" height="226" filterUnits="userSpaceOnUse">
      <feOffset input="SourceAlpha"/>
      <feGaussianBlur stdDeviation="6" result="blur-5"/>
      <feFlood flood-color="#7d7d80"/>
      <feComposite operator="in" in2="blur-5"/>
      <feComposite in="SourceGraphic"/>
    </filter>
    <filter id="Trazado_9" x="584.803" y="10.947" width="256" height="226" filterUnits="userSpaceOnUse">
      <feOffset input="SourceAlpha"/>
      <feGaussianBlur stdDeviation="6" result="blur-6"/>
      <feFlood flood-color="#7d7d80"/>
      <feComposite operator="in" in2="blur-6"/>
      <feComposite in="SourceGraphic"/>
    </filter>
    <filter id="Trazado_6" x="584.409" y="428.947" width="256" height="226" filterUnits="userSpaceOnUse">
      <feOffset input="SourceAlpha"/>
      <feGaussianBlur stdDeviation="6" result="blur-7"/>
      <feFlood flood-color="#7d7d80"/>
      <feComposite operator="in" in2="blur-7"/>
      <feComposite in="SourceGraphic"/>
    </filter>
    <filter id="Trazado_7" x="736.197" y="219.947" width="256" height="226" filterUnits="userSpaceOnUse">
      <feOffset input="SourceAlpha"/>
      <feGaussianBlur stdDeviation="6" result="blur-8"/>
      <feFlood flood-color="#7d7d80"/>
      <feComposite operator="in" in2="blur-8"/>
      <feComposite in="SourceGraphic"/>
    </filter>
    <filter id="Trazado_8" x="435.591" y="219.947" width="256" height="226" filterUnits="userSpaceOnUse">
      <feOffset input="SourceAlpha"/>
      <feGaussianBlur stdDeviation="6" result="blur-9"/>
      <feFlood flood-color="#00d3ff"/>
      <feComposite operator="in" in2="blur-9"/>
      <feComposite in="SourceGraphic"/>
    </filter>
    <clipPath id="clip-Web_1280_1">
      <rect width="1280" height="800"/>
    </clipPath>
  </defs>
  <g id="Web_1280_1" data-name="Web 1280 – 1" class="cls-1">
    <rect width="1280" height="800"/>
    <g class="cls-16" transform="matrix(1, 0, 0, 1, 0, 0)">
      <g id="Trazado_1-2" data-name="Trazado 1" class="cls-2" transform="translate(139.91 8)">
        <path class="cls-3" d="M112.374,27.491c5.124-8.725,18.3-8.725,23.424,0l96.559,164.415c5.008,8.527-1.459,19.041-11.712,19.041H27.527c-10.253,0-16.72-10.513-11.712-19.041Z"/>
        <path class="cls-4" d="M 124.0860214233398 30.94697570800781 C 123.441291809082 30.94697570800781 121.8496398925781 31.10366821289063 120.9971771240234 32.55520629882813 L 24.43829345703125 196.9705505371094 C 24.26844787597656 197.2597503662109 23.75163269042969 198.1397857666016 24.41952514648438 199.3065490722656 C 24.70182800292969 199.7997894287109 25.56982421875 200.947021484375 27.52713012695313 200.947021484375 L 220.6448974609375 200.947021484375 C 222.6021728515625 200.947021484375 223.4701690673828 199.7998199462891 223.7524871826172 199.3065948486328 C 224.42041015625 198.1397857666016 223.903564453125 197.2597503662109 223.7337188720703 196.9705505371094 L 127.1749038696289 32.55525207519531 C 126.3224029541016 31.10366821289063 124.7307510375977 30.94697570800781 124.0860214233398 30.94697570800781 M 124.0860061645508 20.94699096679688 C 128.6607971191406 20.94699096679688 133.235595703125 23.12835693359375 135.7977905273438 27.4910888671875 L 232.3566436767578 191.9064331054688 C 237.3644866943359 200.4335174560547 230.8977203369141 210.947021484375 220.6448974609375 210.947021484375 L 27.52713012695313 210.947021484375 C 17.27432250976563 210.947021484375 10.80752563476563 200.4335174560547 15.81536865234375 191.9064331054688 L 112.3742523193359 27.4910888671875 C 114.9364318847656 23.12835693359375 119.5112152099609 20.94699096679688 124.0860061645508 20.94699096679688 Z"/>
      </g>
    </g>
    <g class="cls-15" transform="matrix(1, 0, 0, 1, 0, 0)">
      <g id="Trazado_2-2" data-name="Trazado 2" class="cls-2" transform="translate(439.51 8)">
        <path class="cls-3" d="M112.374,27.491c5.124-8.725,18.3-8.725,23.424,0l96.559,164.415c5.008,8.527-1.459,19.041-11.712,19.041H27.527c-10.253,0-16.72-10.513-11.712-19.041Z"/>
        <path class="cls-5" d="M 124.0860214233398 30.94697570800781 C 123.441291809082 30.94697570800781 121.8496398925781 31.10366821289063 120.9971771240234 32.55520629882813 L 24.43829345703125 196.9705505371094 C 24.26844787597656 197.2597503662109 23.75163269042969 198.1397857666016 24.41952514648438 199.3065490722656 C 24.70182800292969 199.7997894287109 25.56982421875 200.947021484375 27.52713012695313 200.947021484375 L 220.6448974609375 200.947021484375 C 222.6021728515625 200.947021484375 223.4701690673828 199.7998199462891 223.7524871826172 199.3065948486328 C 224.42041015625 198.1397857666016 223.903564453125 197.2597503662109 223.7337188720703 196.9705505371094 L 127.1749038696289 32.55525207519531 C 126.3224029541016 31.10366821289063 124.7307510375977 30.94697570800781 124.0860214233398 30.94697570800781 M 124.0860061645508 20.94699096679688 C 128.6607971191406 20.94699096679688 133.235595703125 23.12835693359375 135.7977905273438 27.4910888671875 L 232.3566436767578 191.9064331054688 C 237.3644866943359 200.4335174560547 230.8977203369141 210.947021484375 220.6448974609375 210.947021484375 L 27.52713012695313 210.947021484375 C 17.27432250976563 210.947021484375 10.80752563476563 200.4335174560547 15.81536865234375 191.9064331054688 L 112.3742523193359 27.4910888671875 C 114.9364318847656 23.12835693359375 119.5112152099609 20.94699096679688 124.0860061645508 20.94699096679688 Z"/>
      </g>
    </g>
    <g class="cls-14" transform="matrix(1, 0, 0, 1, 0, 0)">
      <g id="Trazado_3-2" data-name="Trazado 3" class="cls-2" transform="translate(588.32 217)">
        <path class="cls-3" d="M112.374,27.491c5.124-8.725,18.3-8.725,23.424,0l96.559,164.415c5.008,8.527-1.459,19.041-11.712,19.041H27.527c-10.253,0-16.72-10.513-11.712-19.041Z"/>
        <path class="cls-5" d="M 124.0860214233398 30.94697570800781 C 123.441291809082 30.94697570800781 121.8496398925781 31.10366821289063 120.9971771240234 32.55520629882813 L 24.43829345703125 196.9705505371094 C 24.26844787597656 197.2597503662109 23.75163269042969 198.1397857666016 24.41952514648438 199.3065490722656 C 24.70182800292969 199.7997894287109 25.56982421875 200.947021484375 27.52713012695313 200.947021484375 L 220.6448974609375 200.947021484375 C 222.6021728515625 200.947021484375 223.4701690673828 199.7998199462891 223.7524871826172 199.3065948486328 C 224.42041015625 198.1397857666016 223.903564453125 197.2597503662109 223.7337188720703 196.9705505371094 L 127.1749038696289 32.55525207519531 C 126.3224029541016 31.10366821289063 124.7307510375977 30.94697570800781 124.0860214233398 30.94697570800781 M 124.0860061645508 20.94699096679688 C 128.6607971191406 20.94699096679688 133.235595703125 23.12835693359375 135.7977905273438 27.4910888671875 L 232.3566436767578 191.9064331054688 C 237.3644866943359 200.4335174560547 230.8977203369141 210.947021484375 220.6448974609375 210.947021484375 L 27.52713012695313 210.947021484375 C 17.27432250976563 210.947021484375 10.80752563476563 200.4335174560547 15.81536865234375 191.9064331054688 L 112.3742523193359 27.4910888671875 C 114.9364318847656 23.12835693359375 119.5112152099609 20.94699096679688 124.0860061645508 20.94699096679688 Z"/>
      </g>
    </g>
    <g class="cls-13" transform="matrix(1, 0, 0, 1, 0, 0)">
      <g id="Trazado_4-2" data-name="Trazado 4" class="cls-2" transform="translate(890.91 217)">
        <path class="cls-3" d="M112.374,27.491c5.124-8.725,18.3-8.725,23.424,0l96.559,164.415c5.008,8.527-1.459,19.041-11.712,19.041H27.527c-10.253,0-16.72-10.513-11.712-19.041Z"/>
        <path class="cls-6" d="M 124.0860214233398 30.94697570800781 C 123.441291809082 30.94697570800781 121.8496398925781 31.10366821289063 120.9971771240234 32.55520629882813 L 24.43829345703125 196.9705505371094 C 24.26844787597656 197.2597503662109 23.75163269042969 198.1397857666016 24.41952514648438 199.3065490722656 C 24.70182800292969 199.7997894287109 25.56982421875 200.947021484375 27.52713012695313 200.947021484375 L 220.6448974609375 200.947021484375 C 222.6021728515625 200.947021484375 223.4701690673828 199.7998199462891 223.7524871826172 199.3065948486328 C 224.42041015625 198.1397857666016 223.903564453125 197.2597503662109 223.7337188720703 196.9705505371094 L 127.1749038696289 32.55525207519531 C 126.3224029541016 31.10366821289063 124.7307510375977 30.94697570800781 124.0860214233398 30.94697570800781 M 124.0860061645508 20.94699096679688 C 128.6607971191406 20.94699096679688 133.235595703125 23.12835693359375 135.7977905273438 27.4910888671875 L 232.3566436767578 191.9064331054688 C 237.3644866943359 200.4335174560547 230.8977203369141 210.947021484375 220.6448974609375 210.947021484375 L 27.52713012695313 210.947021484375 C 17.27432250976563 210.947021484375 10.80752563476563 200.4335174560547 15.81536865234375 191.9064331054688 L 112.3742523193359 27.4910888671875 C 114.9364318847656 23.12835693359375 119.5112152099609 20.94699096679688 124.0860061645508 20.94699096679688 Z"/>
      </g>
    </g>
    <g class="cls-12" transform="matrix(1, 0, 0, 1, 0, 0)">
      <g id="Trazado_5-2" data-name="Trazado 5" class="cls-2" transform="translate(524.8 218.95) rotate(180)">
        <path class="cls-3" d="M98.288,6.544c5.124-8.725,18.3-8.725,23.424,0l96.559,164.415c5.008,8.527-1.459,19.041-11.712,19.041H13.441c-10.253,0-16.72-10.513-11.712-19.041Z"/>
        <path class="cls-5" d="M 110.0000076293945 9.999969482421875 C 109.3552780151367 9.999969482421875 107.7636642456055 10.15666198730469 106.9112014770508 11.60820007324219 L 10.35227966308594 176.0235443115234 C 10.18243408203125 176.312744140625 9.665618896484375 177.1927795410156 10.33351135253906 178.3595428466797 C 10.61581420898438 178.852783203125 11.48381042480469 180.0000152587891 13.44111633300781 180.0000152587891 L 206.5588989257813 180.0000152587891 C 208.5161590576172 180.0000152587891 209.3841552734375 178.8528137207031 209.6664733886719 178.3595886230469 C 210.3343963623047 177.1927795410156 209.8175506591797 176.312744140625 209.647705078125 176.0235443115234 L 113.0888900756836 11.60824584960938 C 112.2363891601563 10.15666198730469 110.6447372436523 9.999969482421875 110.0000076293945 9.999969482421875 M 110 -1.52587890625e-05 C 114.5747833251953 -1.52587890625e-05 119.1495819091797 2.181350708007813 121.7117767333984 6.544082641601563 L 218.2706298828125 170.9594268798828 C 223.2784729003906 179.4865112304688 216.8117065429688 190.0000152587891 206.5588989257813 190.0000152587891 L 13.44111633300781 190.0000152587891 C 3.188308715820313 190.0000152587891 -3.278488159179688 179.4865112304688 1.729354858398438 170.9594268798828 L 98.28827667236328 6.544082641601563 C 100.8504333496094 2.181350708007813 105.4252090454102 -1.52587890625e-05 110 -1.52587890625e-05 Z"/>
      </g>
    </g>
    <g class="cls-11" transform="matrix(1, 0, 0, 1, 0, 0)">
      <g id="Trazado_9-2" data-name="Trazado 9" class="cls-2" transform="translate(822.8 218.95) rotate(180)">
        <path class="cls-3" d="M98.288,6.544c5.124-8.725,18.3-8.725,23.424,0l96.559,164.415c5.008,8.527-1.459,19.041-11.712,19.041H13.441c-10.253,0-16.72-10.513-11.712-19.041Z"/>
        <path class="cls-5" d="M 110.0000076293945 9.999969482421875 C 109.3552780151367 9.999969482421875 107.7636642456055 10.15666198730469 106.9112014770508 11.60820007324219 L 10.35227966308594 176.0235443115234 C 10.18243408203125 176.312744140625 9.665618896484375 177.1927795410156 10.33351135253906 178.3595428466797 C 10.61581420898438 178.852783203125 11.48381042480469 180.0000152587891 13.44111633300781 180.0000152587891 L 206.5588989257813 180.0000152587891 C 208.5161590576172 180.0000152587891 209.3841552734375 178.8528137207031 209.6664733886719 178.3595886230469 C 210.3343963623047 177.1927795410156 209.8175506591797 176.312744140625 209.647705078125 176.0235443115234 L 113.0888900756836 11.60824584960938 C 112.2363891601563 10.15666198730469 110.6447372436523 9.999969482421875 110.0000076293945 9.999969482421875 M 110 -1.52587890625e-05 C 114.5747833251953 -1.52587890625e-05 119.1495819091797 2.181350708007813 121.7117767333984 6.544082641601563 L 218.2706298828125 170.9594268798828 C 223.2784729003906 179.4865112304688 216.8117065429688 190.0000152587891 206.5588989257813 190.0000152587891 L 13.44111633300781 190.0000152587891 C 3.188308715820313 190.0000152587891 -3.278488159179688 179.4865112304688 1.729354858398438 170.9594268798828 L 98.28827667236328 6.544082641601563 C 100.8504333496094 2.181350708007813 105.4252090454102 -1.52587890625e-05 110 -1.52587890625e-05 Z"/>
      </g>
    </g>
    <g class="cls-10" transform="matrix(1, 0, 0, 1, 0, 0)">
      <g id="Trazado_6-2" data-name="Trazado 6" class="cls-2" transform="translate(822.41 636.95) rotate(180)">
        <path class="cls-3" d="M98.288,6.544c5.124-8.725,18.3-8.725,23.424,0l96.559,164.415c5.008,8.527-1.459,19.041-11.712,19.041H13.441c-10.253,0-16.72-10.513-11.712-19.041Z"/>
        <path class="cls-5" d="M 110.0000076293945 9.999969482421875 C 109.3552780151367 9.999969482421875 107.7636642456055 10.15666198730469 106.9112014770508 11.60820007324219 L 10.35227966308594 176.0235443115234 C 10.18243408203125 176.312744140625 9.665618896484375 177.1927795410156 10.33351135253906 178.3595428466797 C 10.61581420898438 178.852783203125 11.48381042480469 180.0000152587891 13.44111633300781 180.0000152587891 L 206.5588989257813 180.0000152587891 C 208.5161590576172 180.0000152587891 209.3841552734375 178.8528137207031 209.6664733886719 178.3595886230469 C 210.3343963623047 177.1927795410156 209.8175506591797 176.312744140625 209.647705078125 176.0235443115234 L 113.0888900756836 11.60824584960938 C 112.2363891601563 10.15666198730469 110.6447372436523 9.999969482421875 110.0000076293945 9.999969482421875 M 110 -1.52587890625e-05 C 114.5747833251953 -1.52587890625e-05 119.1495819091797 2.181350708007813 121.7117767333984 6.544082641601563 L 218.2706298828125 170.9594268798828 C 223.2784729003906 179.4865112304688 216.8117065429688 190.0000152587891 206.5588989257813 190.0000152587891 L 13.44111633300781 190.0000152587891 C 3.188308715820313 190.0000152587891 -3.278488159179688 179.4865112304688 1.729354858398438 170.9594268798828 L 98.28827667236328 6.544082641601563 C 100.8504333496094 2.181350708007813 105.4252090454102 -1.52587890625e-05 110 -1.52587890625e-05 Z"/>
      </g>
    </g>
    <g class="cls-9" transform="matrix(1, 0, 0, 1, 0, 0)">
      <g id="Trazado_7-2" data-name="Trazado 7" class="cls-2" transform="translate(974.2 427.95) rotate(180)">
        <path class="cls-3" d="M98.288,6.544c5.124-8.725,18.3-8.725,23.424,0l96.559,164.415c5.008,8.527-1.459,19.041-11.712,19.041H13.441c-10.253,0-16.72-10.513-11.712-19.041Z"/>
        <path class="cls-5" d="M 110.0000076293945 9.999969482421875 C 109.3552780151367 9.999969482421875 107.7636642456055 10.15666198730469 106.9112014770508 11.60820007324219 L 10.35227966308594 176.0235443115234 C 10.18243408203125 176.312744140625 9.665618896484375 177.1927795410156 10.33351135253906 178.3595428466797 C 10.61581420898438 178.852783203125 11.48381042480469 180.0000152587891 13.44111633300781 180.0000152587891 L 206.5588989257813 180.0000152587891 C 208.5161590576172 180.0000152587891 209.3841552734375 178.8528137207031 209.6664733886719 178.3595886230469 C 210.3343963623047 177.1927795410156 209.8175506591797 176.312744140625 209.647705078125 176.0235443115234 L 113.0888900756836 11.60824584960938 C 112.2363891601563 10.15666198730469 110.6447372436523 9.999969482421875 110.0000076293945 9.999969482421875 M 110 -1.52587890625e-05 C 114.5747833251953 -1.52587890625e-05 119.1495819091797 2.181350708007813 121.7117767333984 6.544082641601563 L 218.2706298828125 170.9594268798828 C 223.2784729003906 179.4865112304688 216.8117065429688 190.0000152587891 206.5588989257813 190.0000152587891 L 13.44111633300781 190.0000152587891 C 3.188308715820313 190.0000152587891 -3.278488159179688 179.4865112304688 1.729354858398438 170.9594268798828 L 98.28827667236328 6.544082641601563 C 100.8504333496094 2.181350708007813 105.4252090454102 -1.52587890625e-05 110 -1.52587890625e-05 Z"/>
      </g>
    </g>
    <g class="cls-8" transform="matrix(1, 0, 0, 1, 0, 0)">
      <g id="Trazado_8-2" data-name="Trazado 8" class="cls-2" transform="translate(673.59 427.95) rotate(180)">
        <path class="cls-3" d="M98.288,6.544c5.124-8.725,18.3-8.725,23.424,0l96.559,164.415c5.008,8.527-1.459,19.041-11.712,19.041H13.441c-10.253,0-16.72-10.513-11.712-19.041Z"/>
        <path class="cls-7" d="M 110.0000076293945 9.999969482421875 C 109.3552780151367 9.999969482421875 107.7636642456055 10.15666198730469 106.9112014770508 11.60820007324219 L 10.35227966308594 176.0235443115234 C 10.18243408203125 176.312744140625 9.665618896484375 177.1927795410156 10.33351135253906 178.3595428466797 C 10.61581420898438 178.852783203125 11.48381042480469 180.0000152587891 13.44111633300781 180.0000152587891 L 206.5588989257813 180.0000152587891 C 208.5161590576172 180.0000152587891 209.3841552734375 178.8528137207031 209.6664733886719 178.3595886230469 C 210.3343963623047 177.1927795410156 209.8175506591797 176.312744140625 209.647705078125 176.0235443115234 L 113.0888900756836 11.60824584960938 C 112.2363891601563 10.15666198730469 110.6447372436523 9.999969482421875 110.0000076293945 9.999969482421875 M 110 -1.52587890625e-05 C 114.5747833251953 -1.52587890625e-05 119.1495819091797 2.181350708007813 121.7117767333984 6.544082641601563 L 218.2706298828125 170.9594268798828 C 223.2784729003906 179.4865112304688 216.8117065429688 190.0000152587891 206.5588989257813 190.0000152587891 L 13.44111633300781 190.0000152587891 C 3.188308715820313 190.0000152587891 -3.278488159179688 179.4865112304688 1.729354858398438 170.9594268798828 L 98.28827667236328 6.544082641601563 C 100.8504333496094 2.181350708007813 105.4252090454102 -1.52587890625e-05 110 -1.52587890625e-05 Z"/>
      </g>
    </g>
  </g>
</svg>
