<svg xmlns="http://www.w3.org/2000/svg" xmlns:xlink="http://www.w3.org/1999/xlink" width="360" height="640" viewBox="0 0 360 640">
  <defs>
    <style>
      .cls-1 {
        clip-path: url(#clip-Móvil_Android_1);
      }

      .cls-2 {
        fill: none;
      }

      .cls-3, .cls-4, .cls-5, .cls-6, .cls-7 {
        stroke: none;
      }

      .cls-4 {
        fill: #70f;
      }

      .cls-5 {
        fill: #535354;
      }

      .cls-6 {
        fill: #00d3ff;
      }

      .cls-7 {
        fill: #ff00a1;
      }

      .cls-8 {
        filter: url(#Trazado_8);
      }

      .cls-9 {
        filter: url(#Trazado_7);
      }

      .cls-10 {
        filter: url(#Trazado_5);
      }

      .cls-11 {
        filter: url(#Trazado_4);
      }

      .cls-12 {
        filter: url(#Trazado_3);
      }

      .cls-13 {
        filter: url(#Trazado_6);
      }

      .cls-14 {
        filter: url(#Trazado_2);
      }

      .cls-15 {
        filter: url(#Trazado_1);
      }
    </style>
    <filter id="Trazado_1" x="18" y="4.947" width="156" height="131" filterUnits="userSpaceOnUse">
      <feOffset input="SourceAlpha"/>
      <feGaussianBlur stdDeviation="6" result="blur"/>
      <feFlood flood-color="#70f"/>
      <feComposite operator="in" in2="blur"/>
      <feComposite in="SourceGraphic"/>
    </filter>
    <filter id="Trazado_2" x="101.803" y="4.947" width="156" height="131" filterUnits="userSpaceOnUse">
      <feOffset input="SourceAlpha"/>
      <feGaussianBlur stdDeviation="6" result="blur-2"/>
      <feFlood flood-color="#7d7d80"/>
      <feComposite operator="in" in2="blur-2"/>
      <feComposite in="SourceGraphic"/>
    </filter>
    <filter id="Trazado_6" x="101.803" y="218.947" width="156" height="131" filterUnits="userSpaceOnUse">
      <feOffset input="SourceAlpha"/>
      <feGaussianBlur stdDeviation="6" result="blur-3"/>
      <feFlood flood-color="#7d7d80"/>
      <feComposite operator="in" in2="blur-3"/>
      <feComposite in="SourceGraphic"/>
    </filter>
    <filter id="Trazado_3" x="184.591" y="111.947" width="156" height="131" filterUnits="userSpaceOnUse">
      <feOffset input="SourceAlpha"/>
      <feGaussianBlur stdDeviation="6" result="blur-4"/>
      <feFlood flood-color="#00d3ff"/>
      <feComposite operator="in" in2="blur-4"/>
      <feComposite in="SourceGraphic"/>
    </filter>
    <filter id="Trazado_4" x="184.591" y="4.947" width="156" height="131" filterUnits="userSpaceOnUse">
      <feOffset input="SourceAlpha"/>
      <feGaussianBlur stdDeviation="6" result="blur-5"/>
      <feFlood flood-color="#7d7d80"/>
      <feComposite operator="in" in2="blur-5"/>
      <feComposite in="SourceGraphic"/>
    </filter>
    <filter id="Trazado_5" x="101.591" y="111.947" width="156" height="131" filterUnits="userSpaceOnUse">
      <feOffset input="SourceAlpha"/>
      <feGaussianBlur stdDeviation="6" result="blur-6"/>
      <feFlood flood-color="#7d7d80"/>
      <feComposite operator="in" in2="blur-6"/>
      <feComposite in="SourceGraphic"/>
    </filter>
    <filter id="Trazado_7" x="184.591" y="218.947" width="156" height="131" filterUnits="userSpaceOnUse">
      <feOffset input="SourceAlpha"/>
      <feGaussianBlur stdDeviation="6" result="blur-7"/>
      <feFlood flood-color="#7d7d80"/>
      <feComposite operator="in" in2="blur-7"/>
      <feComposite in="SourceGraphic"/>
    </filter>
    <filter id="Trazado_8" x="185" y="325.947" width="156" height="131" filterUnits="userSpaceOnUse">
      <feOffset input="SourceAlpha"/>
      <feGaussianBlur stdDeviation="6" result="blur-8"/>
      <feFlood flood-color="#ff00a1"/>
      <feComposite operator="in" in2="blur-8"/>
      <feComposite in="SourceGraphic"/>
    </filter>
    <clipPath id="clip-Móvil_Android_1">
      <rect width="360" height="640"/>
    </clipPath>
  </defs>
  <g id="Móvil_Android_1" data-name="Móvil Android – 1" class="cls-1">
    <rect width="360" height="640"/>
    <g class="cls-15" transform="matrix(1, 0, 0, 1, 0, 0)">
      <g id="Trazado_1-2" data-name="Trazado 1" class="cls-2" transform="translate(21.91 2)">
        <path class="cls-3" d="M67.7,24.219c2.8-4.363,9.981-4.363,12.776,0l52.668,82.208c2.732,4.264-.8,9.52-6.388,9.52H21.418c-5.592,0-9.12-5.257-6.388-9.52Z"/>
        <path class="cls-4" d="M 74.08600616455078 27.94700622558594 L 73.59187316894531 27.99525451660156 L 21.72824859619141 108.9466400146484 L 126.3648529052734 108.8230743408203 L 74.64484405517578 28.07012176513672 C 74.60959625244141 28.04412078857422 74.41148376464844 27.94700622558594 74.08600616455078 27.94700622558594 M 74.08600616455078 20.94700622558594 C 76.58134460449219 20.94700622558594 79.07669067382813 22.03768920898438 80.47423553466797 24.21904754638672 L 133.1426849365234 106.4267120361328 C 135.8742523193359 110.6902542114258 132.3469085693359 115.9470062255859 126.7544860839844 115.9470062255859 L 21.41752624511719 115.9470062255859 C 15.8250732421875 115.9470062255859 12.2977294921875 110.6902542114258 15.029296875 106.4267120361328 L 67.69777679443359 24.21904754638672 C 69.09532165527344 22.03768920898438 71.59066772460938 20.94700622558594 74.08600616455078 20.94700622558594 Z"/>
      </g>
    </g>
    <g class="cls-14" transform="matrix(1, 0, 0, 1, 0, 0)">
      <g id="Trazado_2-2" data-name="Trazado 2" class="cls-2" transform="translate(239.8 117.95) rotate(180)">
        <path class="cls-3" d="M53.612,3.272c2.8-4.363,9.981-4.363,12.776,0L119.057,85.48c2.732,4.264-.8,9.52-6.388,9.52H7.332c-5.592,0-9.12-5.257-6.388-9.52Z"/>
        <path class="cls-5" d="M 60 7 L 59.50586318969727 7.048248291015625 L 7.642257690429688 87.9996337890625 L 112.2788391113281 87.87606811523438 L 60.55884170532227 7.123115539550781 C 60.52359008789063 7.097114562988281 60.32547760009766 7 60 7 M 60 0 C 62.49534225463867 0 64.99067687988281 1.090682983398438 66.38822937011719 3.272041320800781 L 119.0566787719727 85.47970581054688 C 121.7882537841797 89.74327087402344 118.2609100341797 95 112.6684799194336 95 L 7.331520080566406 95 C 1.739067077636719 95 -1.788253784179688 89.74327087402344 0.94329833984375 85.47970581054688 L 53.61177062988281 3.272041320800781 C 55.00931549072266 1.090682983398438 57.50465774536133 0 60 0 Z"/>
      </g>
    </g>
    <g class="cls-13" transform="matrix(1, 0, 0, 1, 0, 0)">
      <g id="Trazado_6-2" data-name="Trazado 6" class="cls-2" transform="translate(239.8 331.95) rotate(180)">
        <path class="cls-3" d="M53.612,3.272c2.8-4.363,9.981-4.363,12.776,0L119.057,85.48c2.732,4.264-.8,9.52-6.388,9.52H7.332c-5.592,0-9.12-5.257-6.388-9.52Z"/>
        <path class="cls-5" d="M 60 7 L 59.50586318969727 7.048248291015625 L 7.642257690429688 87.9996337890625 L 112.2788391113281 87.87606811523438 L 60.55884170532227 7.123115539550781 C 60.52359008789063 7.097114562988281 60.32547760009766 7 60 7 M 60 0 C 62.49534225463867 0 64.99067687988281 1.090682983398438 66.38822937011719 3.272041320800781 L 119.0566787719727 85.47970581054688 C 121.7882537841797 89.74327087402344 118.2609100341797 95 112.6684799194336 95 L 7.331520080566406 95 C 1.739067077636719 95 -1.788253784179688 89.74327087402344 0.94329833984375 85.47970581054688 L 53.61177062988281 3.272041320800781 C 55.00931549072266 1.090682983398438 57.50465774536133 0 60 0 Z"/>
      </g>
    </g>
    <g class="cls-12" transform="matrix(1, 0, 0, 1, 0, 0)">
      <g id="Trazado_3-2" data-name="Trazado 3" class="cls-2" transform="translate(322.59 224.95) rotate(180)">
        <path class="cls-3" d="M53.612,3.272c2.8-4.363,9.981-4.363,12.776,0L119.057,85.48c2.732,4.264-.8,9.52-6.388,9.52H7.332c-5.592,0-9.12-5.257-6.388-9.52Z"/>
        <path class="cls-6" d="M 60 7 L 59.50586318969727 7.048248291015625 L 7.642257690429688 87.9996337890625 L 112.2788391113281 87.87606811523438 L 60.55884170532227 7.123115539550781 C 60.52359008789063 7.097114562988281 60.32547760009766 7 60 7 M 60 0 C 62.49534225463867 0 64.99067687988281 1.090682983398438 66.38822937011719 3.272041320800781 L 119.0566787719727 85.47970581054688 C 121.7882537841797 89.74327087402344 118.2609100341797 95 112.6684799194336 95 L 7.331520080566406 95 C 1.739067077636719 95 -1.788253784179688 89.74327087402344 0.94329833984375 85.47970581054688 L 53.61177062988281 3.272041320800781 C 55.00931549072266 1.090682983398438 57.50465774536133 0 60 0 Z"/>
      </g>
    </g>
    <g class="cls-11" transform="matrix(1, 0, 0, 1, 0, 0)">
      <g id="Trazado_4-2" data-name="Trazado 4" class="cls-2" transform="translate(188.51 2)">
        <path class="cls-3" d="M67.7,24.219c2.8-4.363,9.981-4.363,12.776,0l52.668,82.208c2.732,4.264-.8,9.52-6.388,9.52H21.418c-5.592,0-9.12-5.257-6.388-9.52Z"/>
        <path class="cls-5" d="M 74.08600616455078 27.94700622558594 L 73.59187316894531 27.99525451660156 L 21.72825622558594 108.9466400146484 L 126.3648529052734 108.8230743408203 L 74.64484405517578 28.07012176513672 C 74.60959625244141 28.04412078857422 74.41148376464844 27.94700622558594 74.08600616455078 27.94700622558594 M 74.08600616455078 20.94700622558594 C 76.58134460449219 20.94700622558594 79.07669067382813 22.03768920898438 80.47423553466797 24.21904754638672 L 133.1426849365234 106.4267120361328 C 135.8742523193359 110.6902770996094 132.3469085693359 115.9470062255859 126.7544860839844 115.9470062255859 L 21.41752624511719 115.9470062255859 C 15.8250732421875 115.9470062255859 12.2977294921875 110.6902770996094 15.029296875 106.4267120361328 L 67.69777679443359 24.21904754638672 C 69.09532165527344 22.03768920898438 71.59066772460938 20.94700622558594 74.08600616455078 20.94700622558594 Z"/>
      </g>
    </g>
    <g class="cls-10" transform="matrix(1, 0, 0, 1, 0, 0)">
      <g id="Trazado_5-2" data-name="Trazado 5" class="cls-2" transform="translate(105.51 109)">
        <path class="cls-3" d="M67.7,24.219c2.8-4.363,9.981-4.363,12.776,0l52.668,82.208c2.732,4.264-.8,9.52-6.388,9.52H21.418c-5.592,0-9.12-5.257-6.388-9.52Z"/>
        <path class="cls-5" d="M 74.08600616455078 27.94700622558594 L 73.59187316894531 27.99525451660156 L 21.72825622558594 108.9466400146484 L 126.3648529052734 108.8230743408203 L 74.64484405517578 28.07012176513672 C 74.60959625244141 28.04412078857422 74.41148376464844 27.94700622558594 74.08600616455078 27.94700622558594 M 74.08600616455078 20.94700622558594 C 76.58134460449219 20.94700622558594 79.07669067382813 22.03768920898438 80.47423553466797 24.21904754638672 L 133.1426849365234 106.4267120361328 C 135.8742523193359 110.6902770996094 132.3469085693359 115.9470062255859 126.7544860839844 115.9470062255859 L 21.41752624511719 115.9470062255859 C 15.8250732421875 115.9470062255859 12.2977294921875 110.6902770996094 15.029296875 106.4267120361328 L 67.69777679443359 24.21904754638672 C 69.09532165527344 22.03768920898438 71.59066772460938 20.94700622558594 74.08600616455078 20.94700622558594 Z"/>
      </g>
    </g>
    <g class="cls-9" transform="matrix(1, 0, 0, 1, 0, 0)">
      <g id="Trazado_7-2" data-name="Trazado 7" class="cls-2" transform="translate(188.51 216)">
        <path class="cls-3" d="M67.7,24.219c2.8-4.363,9.981-4.363,12.776,0l52.668,82.208c2.732,4.264-.8,9.52-6.388,9.52H21.418c-5.592,0-9.12-5.257-6.388-9.52Z"/>
        <path class="cls-5" d="M 74.08600616455078 27.94700622558594 L 73.59187316894531 27.99525451660156 L 21.72825622558594 108.9466400146484 L 126.3648529052734 108.8230743408203 L 74.64484405517578 28.07012176513672 C 74.60959625244141 28.04412078857422 74.41148376464844 27.94700622558594 74.08600616455078 27.94700622558594 M 74.08600616455078 20.94700622558594 C 76.58134460449219 20.94700622558594 79.07669067382813 22.03768920898438 80.47423553466797 24.21904754638672 L 133.1426849365234 106.4267120361328 C 135.8742523193359 110.6902770996094 132.3469085693359 115.9470062255859 126.7544860839844 115.9470062255859 L 21.41752624511719 115.9470062255859 C 15.8250732421875 115.9470062255859 12.2977294921875 110.6902770996094 15.029296875 106.4267120361328 L 67.69777679443359 24.21904754638672 C 69.09532165527344 22.03768920898438 71.59066772460938 20.94700622558594 74.08600616455078 20.94700622558594 Z"/>
      </g>
    </g>
    <g class="cls-8" transform="matrix(1, 0, 0, 1, 0, 0)">
      <g id="Trazado_8-2" data-name="Trazado 8" class="cls-2" transform="translate(337.09 459.89) rotate(180)">
        <path class="cls-3" d="M67.7,24.219c2.8-4.363,9.981-4.363,12.776,0l52.668,82.208c2.732,4.264-.8,9.52-6.388,9.52H21.418c-5.592,0-9.12-5.257-6.388-9.52Z"/>
        <path class="cls-7" d="M 74.08600616455078 27.94700622558594 L 73.59187316894531 27.99525451660156 L 21.72825622558594 108.9466400146484 L 126.3648529052734 108.8230743408203 L 74.64484405517578 28.07012176513672 C 74.60959625244141 28.04412078857422 74.41148376464844 27.94700622558594 74.08600616455078 27.94700622558594 M 74.08600616455078 20.94700622558594 C 76.58134460449219 20.94700622558594 79.07669067382813 22.03768920898438 80.47423553466797 24.21904754638672 L 133.1426849365234 106.4267120361328 C 135.8742523193359 110.6902770996094 132.3469085693359 115.9470062255859 126.7544860839844 115.9470062255859 L 21.41752624511719 115.9470062255859 C 15.8250732421875 115.9470062255859 12.2977294921875 110.6902770996094 15.029296875 106.4267120361328 L 67.69777679443359 24.21904754638672 C 69.09532165527344 22.03768920898438 71.59066772460938 20.94700622558594 74.08600616455078 20.94700622558594 Z"/>
      </g>
    </g>
  </g>
</svg>
